<svg xmlns="http://www.w3.org/2000/svg" viewBox="0 0 64 64">
  <defs>
    <linearGradient id="hat" x1="0%" y1="0%" x2="100%" y2="100%">
      <stop offset="0%" stop-color="#FF2D92"/>
      <stop offset="100%" stop-color="#C2006A"/>
    </linearGradient>
    <linearGradient id="band" x1="0%" y1="0%" x2="100%" y2="0%">
      <stop offset="0%" stop-color="#FFD700"/>
      <stop offset="100%" stop-color="#FFA500"/>
    </linearGradient>
  </defs>
  <ellipse cx="32" cy="56" rx="22" ry="4" fill="rgba(0,0,0,0.10)"/>
  <ellipse cx="32" cy="46" rx="26" ry="7" fill="url(#hat)"/>
  <ellipse cx="32" cy="44.5" rx="26" ry="7" fill="url(#hat)" opacity="0.7"/>
  <rect x="16" y="12" width="32" height="34" rx="4" fill="url(#hat)"/>
  <rect x="16" y="10" width="32" height="10" rx="5" fill="url(#hat)"/>
  <rect x="15" y="38" width="34" height="5" rx="2.5" fill="url(#band)"/>
  <g fill="#FFD700" opacity="0.9">
    <path d="M50 8 l1.5 3 3 1.5 -3 1.5 -1.5 3 -1.5-3 -3-1.5 3-1.5z"/>
    <path d="M56 18 l1 2 2 1 -2 1 -1 2 -1-2 -2-1 2-1z" opacity="0.6"/>
  </g>
  <rect x="20" y="14" width="6" height="20" rx="3" fill="white" opacity="0.15"/>
</svg>
